<svg width="16" height="17" viewBox="0 0 16 17" fill="none" xmlns="http://www.w3.org/2000/svg">
<path d="M14.1666 8.5H5.92992M3.02259 8.5H1.83325M3.02259 8.5C3.02259 8.11455 3.1757 7.74489 3.44826 7.47234C3.72081 7.19978 4.09047 7.04666 4.47592 7.04666C4.86137 7.04666 5.23103 7.19978 5.50358 7.47234C5.77613 7.74489 5.92925 8.11455 5.92925 8.5C5.92925 8.88545 5.77613 9.25511 5.50358 9.52766C5.23103 9.80021 4.86137 9.95333 4.47592 9.95333C4.09047 9.95333 3.72081 9.80021 3.44826 9.52766C3.1757 9.25511 3.02259 8.88545 3.02259 8.5ZM14.1666 12.9047H10.3346M10.3346 12.9047C10.3346 13.2902 10.1811 13.6603 9.90848 13.9329C9.63587 14.2055 9.26612 14.3587 8.88059 14.3587C8.49514 14.3587 8.12548 14.2049 7.85292 13.9323C7.58037 13.6598 7.42725 13.2901 7.42725 12.9047M10.3346 12.9047C10.3346 12.5191 10.1811 12.1497 9.90848 11.8771C9.63587 11.6045 9.26612 11.4513 8.88059 11.4513C8.49514 11.4513 8.12548 11.6045 7.85292 11.877C7.58037 12.1496 7.42725 12.5192 7.42725 12.9047M7.42725 12.9047H1.83325M14.1666 4.09533H12.0966M9.18925 4.09533H1.83325M9.18925 4.09533C9.18925 3.70988 9.34237 3.34022 9.61492 3.06767C9.88748 2.79512 10.2571 2.642 10.6426 2.642C10.8334 2.642 11.0224 2.67959 11.1988 2.75263C11.3751 2.82566 11.5353 2.93272 11.6702 3.06767C11.8052 3.20262 11.9123 3.36284 11.9853 3.53917C12.0583 3.71549 12.0959 3.90448 12.0959 4.09533C12.0959 4.28619 12.0583 4.47517 11.9853 4.6515C11.9123 4.82782 11.8052 4.98804 11.6702 5.12299C11.5353 5.25795 11.3751 5.365 11.1988 5.43804C11.0224 5.51107 10.8334 5.54866 10.6426 5.54866C10.2571 5.54866 9.88748 5.39555 9.61492 5.12299C9.34237 4.85044 9.18925 4.48078 9.18925 4.09533Z" stroke="#8C8C8C" stroke-width="1.5" stroke-miterlimit="10" stroke-linecap="round"/>
</svg>
