<svg width="81" height="80" viewBox="0 0 81 80" fill="none" xmlns="http://www.w3.org/2000/svg">
<mask id="mask0_661_344" style="mask-type:luminance" maskUnits="userSpaceOnUse" x="0" y="0" width="81" height="80">
<path d="M80.5 0H0.5V80H80.5V0Z" fill="white"/>
</mask>
<g mask="url(#mask0_661_344)">
<path d="M8.15247 51.1134V54.2749C8.15275 54.9462 8.3346 55.6075 8.68255 56.2026C9.03051 56.7981 9.53422 57.309 10.1509 57.6931L24.1798 45.1623L20.2905 41.6883C20.1864 41.5956 20.0629 41.5218 19.9269 41.4715C19.791 41.4212 19.6453 41.3953 19.4981 41.3953C19.351 41.3953 19.2053 41.4212 19.0694 41.4715C18.9334 41.5218 18.8099 41.5956 18.7058 41.6883L8.15247 51.1134Z" fill="url(#paint0_linear_661_344)"/>
<path d="M19.4969 37.5866C19.9672 37.5855 20.433 37.6675 20.8675 37.8286C21.302 37.9894 21.6964 38.2256 22.0279 38.5233L26.8187 42.8024L36.6551 34.0167C37.6754 33.1069 39.0581 32.5959 40.4998 32.5959C41.9415 32.5959 43.3243 33.1069 44.3445 34.0167L58.0216 46.2328L62.2487 42.4572C62.9207 41.8585 63.8305 41.5223 64.7798 41.5223C65.7287 41.5223 66.6389 41.8585 67.3105 42.4572L72.8476 47.4069V25.7268C72.8476 24.9947 72.6318 24.2756 72.2216 23.6416C71.8118 23.0076 71.2224 22.4812 70.5126 22.1151L42.8344 7.84179C42.1246 7.4757 41.3191 7.28296 40.4994 7.28296C39.6797 7.28296 38.8744 7.4757 38.1644 7.84179L10.4858 22.1151C9.77596 22.4812 9.18649 23.0076 8.77662 23.6416C8.36674 24.2756 8.15092 24.9947 8.15076 25.7268V46.395L16.9642 38.523C17.296 38.2249 17.6907 37.9886 18.1254 37.8283C18.5602 37.6675 19.0264 37.5852 19.4969 37.5866Z" fill="url(#paint1_linear_661_344)"/>
<path d="M60.6621 48.5936L70.8476 57.6929C71.4643 57.3088 71.968 56.7975 72.3158 56.2024C72.6636 55.6073 72.8452 54.946 72.8456 54.2747V52.1243L65.5688 45.6248C65.3587 45.4371 65.0737 45.3318 64.7765 45.3318C64.479 45.3318 64.194 45.4371 63.9839 45.6248L60.6621 48.5936Z" fill="url(#paint2_linear_661_344)"/>
<path d="M58.0208 50.9516L55.3802 48.5934L41.7032 36.3776C41.3839 36.0928 40.9515 35.9331 40.5004 35.9331C40.0494 35.9331 39.6168 36.0928 39.2977 36.3776L29.4613 45.1634L26.8203 47.5222L13.4855 59.4313L38.164 72.1584C38.874 72.5245 39.6793 72.7172 40.499 72.7172C41.3187 72.7172 42.1243 72.5245 42.834 72.1584L67.5126 59.4313L58.0208 50.9516Z" fill="url(#paint3_linear_661_344)"/>
<path d="M40.5002 3.44913C41.4157 3.44891 42.3155 3.66409 43.1082 4.07301L74.0304 20.0191C74.8235 20.4281 75.4818 21.0162 75.9395 21.7245C76.3972 22.4328 76.6384 23.2362 76.6384 24.054V55.9463C76.6384 56.764 76.3972 57.5673 75.9395 58.2757C75.4818 58.9837 74.8235 59.572 74.0304 59.9809L43.1082 75.927C42.3151 76.3358 41.4157 76.5512 40.5 76.5512C39.5844 76.5512 38.6848 76.3358 37.8918 75.927L6.96957 59.9809C6.17663 59.572 5.51816 58.9837 5.06038 58.2757C4.6026 57.5673 4.36159 56.764 4.36161 55.9463V24.054C4.3616 23.2362 4.6026 22.4328 5.06038 21.7245C5.5182 21.0162 6.17663 20.4281 6.96957 20.0191L37.8918 4.07301C38.6849 3.66413 39.5845 3.44895 40.5002 3.44913ZM40.5002 0C38.9068 0.000555792 37.3416 0.375172 35.9614 1.0863L5.03876 17.0324C3.66052 17.7458 2.51597 18.7697 1.7195 20.0018C0.923038 21.234 0.502531 22.6313 0.5 24.054V55.9463C0.502612 57.3692 0.923203 58.7665 1.71974 59.9985C2.51627 61.2308 3.66087 62.2545 5.03916 62.9679L35.9614 78.914C37.3415 79.6257 38.9068 80 40.5002 80C42.0936 80 43.6589 79.6257 45.039 78.914L75.9612 62.9679C77.3397 62.2549 78.4847 61.2308 79.2814 59.9988C80.0781 58.7665 80.4988 57.3692 80.5016 55.9463V24.054C80.4992 22.6313 80.0785 21.234 79.2822 20.0019C78.4855 18.7697 77.3409 17.7458 75.9629 17.0324L45.0406 1.0863C43.6605 0.375219 42.0953 0.000606371 40.5018 0H40.5002Z" fill="url(#paint4_linear_661_344)"/>
</g>
<defs>
<linearGradient id="paint0_linear_661_344" x1="16.1661" y1="7.78889" x2="16.1661" y2="72.9805" gradientUnits="userSpaceOnUse">
<stop offset="0.004" stop-color="#4C99D4"/>
<stop offset="0.5" stop-color="#56C3E6"/>
<stop offset="1" stop-color="#B0D8BC"/>
</linearGradient>
<linearGradient id="paint1_linear_661_344" x1="40.4992" y1="7.80457" x2="40.4992" y2="73.006" gradientUnits="userSpaceOnUse">
<stop offset="0.004" stop-color="#4C99D4"/>
<stop offset="0.5" stop-color="#56C3E6"/>
<stop offset="1" stop-color="#B0D8BC"/>
</linearGradient>
<linearGradient id="paint2_linear_661_344" x1="66.754" y1="7.7907" x2="66.754" y2="72.9838" gradientUnits="userSpaceOnUse">
<stop offset="0.004" stop-color="#4C99D4"/>
<stop offset="0.5" stop-color="#56C3E6"/>
<stop offset="1" stop-color="#B0D8BC"/>
</linearGradient>
<linearGradient id="paint3_linear_661_344" x1="40.499" y1="7.79321" x2="40.499" y2="72.9747" gradientUnits="userSpaceOnUse">
<stop offset="0.004" stop-color="#4C99D4"/>
<stop offset="0.5" stop-color="#56C3E6"/>
<stop offset="1" stop-color="#B0D8BC"/>
</linearGradient>
<linearGradient id="paint4_linear_661_344" x1="40.5008" y1="80" x2="40.5008" y2="0" gradientUnits="userSpaceOnUse">
<stop stop-color="#B0D8BC"/>
<stop offset="0.5" stop-color="#56C3E6"/>
<stop offset="0.996" stop-color="#4C99D4"/>
</linearGradient>
</defs>
</svg>
