<svg width="81" height="80" viewBox="0 0 81 80" fill="none" xmlns="http://www.w3.org/2000/svg">
<mask id="mask0_661_316" style="mask-type:luminance" maskUnits="userSpaceOnUse" x="0" y="0" width="81" height="80">
<path d="M80.5 0H0.5V80H80.5V0Z" fill="white"/>
</mask>
<g mask="url(#mask0_661_316)">
<path d="M45.1249 34.0228C43.3091 34.0228 41.5675 33.4415 40.2835 32.4068C38.9995 31.3721 38.2782 29.9688 38.2782 28.5056C38.2782 27.0423 38.9995 25.639 40.2835 24.6043C41.5675 23.5696 43.3091 22.9883 45.1249 22.9883C50.8733 22.9832 56.384 21.1409 60.4489 17.8657C64.5133 14.5904 66.8 10.1496 66.8065 5.5175C66.8065 4.05424 67.5278 2.6509 68.812 1.61621C70.0957 0.581526 71.8374 0.000244141 73.653 0.000244141C75.4692 0.000244141 77.2108 0.581526 78.4945 1.61621C79.7787 2.6509 80.5 4.05424 80.5 5.5175C80.4892 13.0751 76.759 20.3206 70.1271 25.6645C63.4953 31.0085 54.5037 34.0144 45.1249 34.0228Z" fill="#EC6C0C"/>
<path d="M7.34695 79.9999C5.53105 79.9999 3.78949 79.4187 2.50544 78.3839C1.22138 77.349 0.5 75.946 0.5 74.4825C0.510544 66.9249 4.24096 59.6792 10.8728 54.3351C17.5047 48.991 26.4963 45.9851 35.8751 45.9768C37.6909 45.9768 39.4324 46.558 40.7164 47.5929C42.0004 48.6273 42.7218 50.0308 42.7218 51.4942C42.7218 52.9573 42.0004 54.3608 40.7164 55.3952C39.4324 56.4301 37.6909 57.0113 35.8751 57.0113C30.1268 57.0166 24.6158 58.8589 20.5511 62.1341C16.4865 65.4096 14.2 69.8503 14.1934 74.4825C14.1934 75.9456 13.4721 77.349 12.1882 78.3839C10.9042 79.4187 9.16281 79.9999 7.34695 79.9999Z" fill="#BE3818"/>
<path d="M45.1249 80C43.3189 79.9879 41.5919 79.4014 40.3201 78.3681C39.0482 77.3348 38.3346 75.9381 38.3346 74.4826C38.3346 73.0274 39.0482 71.6308 40.3201 70.5974C41.5919 69.5641 43.3189 68.9776 45.1249 68.9655C47.9721 68.9655 50.7917 68.5134 53.422 67.6357C56.0527 66.7576 58.4425 65.4705 60.4559 63.8484C62.4694 62.2259 64.0662 60.2998 65.1559 58.1803C66.2455 56.0604 66.8061 53.7883 66.8061 51.4939C66.8061 49.1996 66.2455 46.9279 65.1559 44.808C64.0662 42.6885 62.4694 40.7623 60.4559 39.1399C58.4425 37.5176 56.0527 36.2307 53.422 35.3527C50.7917 34.4746 47.9721 34.0227 45.1249 34.0227C43.3091 34.0227 41.5675 33.4414 40.2835 32.4068C38.9995 31.3721 38.2782 29.9688 38.2782 28.5055C38.2782 27.0422 38.9995 25.6389 40.2835 24.6042C41.5675 23.5695 43.3091 22.9882 45.1249 22.9882C49.7813 22.9746 54.3949 23.7018 58.7017 25.1283C63.0088 26.5547 66.9237 28.6522 70.2218 31.3006C73.5204 33.949 76.138 37.0961 77.9237 40.5614C79.7093 44.0266 80.6289 47.7418 80.6289 51.4939C80.6289 55.2461 79.7093 58.9617 77.9237 62.4268C76.138 65.892 73.5204 69.0392 70.2218 71.6874C66.9237 74.336 63.0088 76.4336 58.7017 77.8601C54.3949 79.2866 49.7813 80.0136 45.1249 80Z" fill="url(#paint0_linear_661_316)"/>
<path d="M69.6444 26.0444C73.0784 23.3899 75.8109 20.2029 77.6762 16.6752C79.542 13.1475 80.5023 9.35213 80.5 5.5175C80.5 4.05424 79.7787 2.6509 78.4945 1.61621C77.2108 0.581526 75.4692 0.000244141 73.6535 0.000244141C71.8374 0.000244141 70.0958 0.581526 68.812 1.61621C67.5279 2.6509 66.8066 4.05424 66.8066 5.5175C66.8047 8.4853 65.865 11.4038 64.0756 13.9979C62.2866 16.5919 59.707 18.776 56.58 20.3442C61.3867 21.4768 65.8401 23.4198 69.6444 26.0444Z" fill="url(#paint1_linear_661_316)"/>
<path d="M35.8751 57.0114C26.4931 57.0114 17.4955 54.0081 10.8615 48.6621C4.22744 43.3165 0.500488 36.0658 0.500488 28.5057C0.500488 20.9455 4.22744 13.695 10.8615 8.34912C17.4955 3.00327 26.4931 0 35.8751 0C37.6909 0 39.4324 0.581282 40.7164 1.61596C42.0005 2.65065 42.7218 4.05399 42.7218 5.51725C42.7218 6.98051 42.0005 8.38383 40.7164 9.41854C39.4324 10.4532 37.6909 11.0345 35.8751 11.0345C33.0279 11.0345 30.2086 11.4864 27.5781 12.3644C24.9476 13.2424 22.5575 14.5293 20.5442 16.1517C18.5309 17.774 16.9339 19.7 15.8443 21.8198C14.7547 23.9395 14.1939 26.2113 14.1939 28.5057C14.1939 30.8 14.7547 33.0719 15.8443 35.1916C16.9339 37.3113 18.5309 39.2373 20.5442 40.8598C22.5575 42.4819 24.9476 43.769 27.5781 44.6471C30.2086 45.5248 33.0279 45.9769 35.8751 45.9769C37.6909 45.9769 39.4324 46.5581 40.7164 47.5929C42.0005 48.6274 42.7218 50.0308 42.7218 51.4939C42.7218 52.9574 42.0005 54.3609 40.7164 55.3953C39.4324 56.4301 37.6909 57.0114 35.8751 57.0114Z" fill="url(#paint2_linear_661_316)"/>
<path d="M11.356 53.9553C7.92173 56.61 5.18951 59.7968 3.32383 63.3247C1.45815 66.8525 0.497591 70.6478 0.49999 74.4827C0.492512 75.2112 0.664087 75.9333 1.00481 76.6082C1.34554 77.2827 1.84868 77.8964 2.4852 78.4135C3.12172 78.9309 3.87903 79.3414 4.71342 79.6213C5.54781 79.9015 6.44281 80.0458 7.3467 80.0458C8.25065 80.0458 9.14564 79.9015 9.98003 79.6213C10.8144 79.3414 11.5717 78.9309 12.2082 78.4135C12.8447 77.8964 13.3479 77.2827 13.6886 76.6082C14.0293 75.9333 14.2009 75.2112 14.1934 74.4827C14.1952 71.5149 15.1351 68.5962 16.9245 66.002C18.7138 63.4077 21.2936 61.2237 24.4205 59.6556C19.6136 58.5229 15.1604 56.5798 11.356 53.9553Z" fill="#E64A1A"/>
</g>
<defs>
<linearGradient id="paint0_linear_661_316" x1="59.4534" y1="80" x2="59.4534" y2="22.988" gradientUnits="userSpaceOnUse">
<stop stop-color="#E9592D"/>
<stop offset="1" stop-color="#F39519"/>
</linearGradient>
<linearGradient id="paint1_linear_661_316" x1="63.0623" y1="23.3619" x2="80.4173" y2="2.94487" gradientUnits="userSpaceOnUse">
<stop offset="0.005" stop-color="#F39519"/>
<stop offset="0.146" stop-color="#F39519"/>
<stop offset="1" stop-color="#F39519"/>
</linearGradient>
<linearGradient id="paint2_linear_661_316" x1="21.6111" y1="57.0114" x2="21.6111" y2="0" gradientUnits="userSpaceOnUse">
<stop stop-color="#E9592D"/>
<stop offset="1" stop-color="#F39519"/>
</linearGradient>
</defs>
</svg>
