<svg width="33" height="32" viewBox="0 0 33 32" fill="none" xmlns="http://www.w3.org/2000/svg">
<path d="M11.9 26.6667H21.1L22.4333 21.3333H10.5667L11.9 26.6667ZM9.83333 29.3333L7.83333 21.3333H25.1667L23.1667 29.3333H9.83333ZM7.16667 18.6667H25.8333V16H7.16667V18.6667ZM16.5 10.6667C16.5 8.44444 17.2778 6.55555 18.8333 5C20.3889 3.44444 22.2778 2.66666 24.5 2.66666C24.5 4.66666 23.8667 6.4 22.6 7.86666C21.3333 9.33333 19.7444 10.2222 17.8333 10.5333V13.3333H28.5V21.3333H4.5V13.3333H15.1667V10.5333C13.2556 10.2222 11.6667 9.33333 10.4 7.86666C9.13333 6.4 8.5 4.66666 8.5 2.66666C10.7222 2.66666 12.6111 3.44444 14.1667 5C15.7222 6.55555 16.5 8.44444 16.5 10.6667Z" fill="white"/>
</svg>
