<svg width="81" height="80" viewBox="0 0 81 80" fill="none" xmlns="http://www.w3.org/2000/svg">
<mask id="mask0_661_789" style="mask-type:luminance" maskUnits="userSpaceOnUse" x="0" y="0" width="81" height="80">
<path d="M80.5 0H0.5V80H80.5V0Z" fill="white"/>
</mask>
<g mask="url(#mask0_661_789)">
<path d="M65.6103 22.4115C66.9824 22.0438 68.1958 21.235 69.0633 20.1097C69.9304 18.9844 70.4035 17.6052 70.4096 16.1845V16.1676C70.4096 14.4602 69.7314 12.8227 68.5238 11.6153C67.3165 10.408 65.6789 9.72974 63.9716 9.72974H63.9551C62.5345 9.73595 61.1555 10.2092 60.0305 11.0764C58.9055 11.9436 58.0966 13.1568 57.7291 14.529C56.6774 18.3387 54.4047 21.6982 51.2603 24.0924C48.1155 26.4865 44.2724 27.783 40.3202 27.783C36.3679 27.783 32.5247 26.4865 29.3801 24.0924C26.2355 21.6982 23.963 18.3387 22.9113 14.529C22.5434 13.1569 21.7345 11.9439 20.6093 11.0769C19.4841 10.2098 18.105 9.73685 16.6845 9.73081H16.6677C14.9602 9.73081 13.3227 10.4091 12.1154 11.6164C10.908 12.8238 10.2297 14.4613 10.2297 16.1687V16.1856C10.236 17.6061 10.7092 18.9851 11.5765 20.1102C12.4437 21.2352 13.6569 22.0439 15.029 22.4115C18.8388 23.4633 22.1983 25.7357 24.5924 28.8804C26.9866 32.0249 28.2831 35.8681 28.2831 39.8203C28.2831 43.7726 26.9866 47.6156 24.5924 50.7604C22.1983 53.9052 18.8388 56.1775 15.029 57.2292C13.657 57.597 12.4439 58.4056 11.5767 59.5306C10.7096 60.6556 10.2364 62.0345 10.2301 63.4548V63.4717C10.2301 65.1793 10.9084 66.8165 12.1157 68.0241C13.3231 69.2314 14.9606 69.9096 16.668 69.9096H16.6849C18.1054 69.9035 19.4844 69.43 20.6095 68.5629C21.7346 67.6955 22.5432 66.4825 22.9109 65.1103C23.9627 61.3007 26.2351 57.9411 29.3797 55.5471C32.5244 53.1527 36.3676 51.8563 40.3198 51.8563C44.2721 51.8563 48.1152 53.1527 51.2599 55.5471C54.4044 57.9411 56.677 61.3007 57.7288 65.1103C58.0962 66.4825 58.9051 67.6958 60.0301 68.5633C61.1552 69.4304 62.5345 69.9038 63.9551 69.9099H63.972C65.6793 69.9099 67.3169 69.2314 68.5241 68.0241C69.7314 66.8169 70.4099 65.1793 70.4099 63.472V63.4548C70.4038 62.0342 69.9304 60.6552 69.0633 59.5302C68.1958 58.4052 66.9828 57.5966 65.6107 57.2288C61.801 56.1771 58.4414 53.9048 56.0473 50.7601C53.6529 47.6153 52.3566 43.7722 52.3566 39.82C52.3566 35.8677 53.6529 32.0246 56.0473 28.88C58.4414 25.7354 61.801 23.4629 65.6107 22.4112L65.6103 22.4115Z" fill="url(#paint0_linear_661_789)"/>
<path d="M8.84087 3.75459C9.04821 3.95741 9.31467 4.09165 9.60318 4.13863C9.89168 4.1856 10.1879 4.14298 10.4506 4.0167C12.8479 2.87803 15.5453 2.49878 18.1709 2.93123C20.7966 3.36368 23.2212 4.58654 25.1105 6.43121C25.3709 6.68932 25.7229 6.83817 26.0925 6.84648C26.4622 6.85479 26.8207 6.72193 27.0929 6.47578C27.2281 6.34883 27.3362 6.19658 27.4107 6.02796C27.4853 5.85934 27.5248 5.67778 27.527 5.49391C27.5291 5.31005 27.4939 5.12763 27.4234 4.95735C27.3528 4.78707 27.2484 4.63239 27.1162 4.50236C24.8123 2.24194 21.8502 0.742766 18.6409 0.212819C15.4315 -0.317128 12.1341 0.148426 9.20591 1.54489C9.00656 1.64212 8.83361 1.7847 8.70147 1.9608C8.56934 2.13691 8.4818 2.34146 8.44609 2.55749C8.41041 2.77353 8.4276 2.99482 8.49626 3.20301C8.56492 3.4112 8.68306 3.60029 8.84087 3.75459Z" fill="url(#paint1_linear_661_789)"/>
<path d="M2.04767 8.7068C0.655213 11.6253 0.186455 14.9119 0.706075 18.1132C1.22569 21.3145 2.70808 24.2727 4.94871 26.5797C5.18433 26.8318 5.50162 26.9885 5.84194 27.0208C6.18223 27.0532 6.52251 26.9589 6.79987 26.7555C6.95698 26.6346 7.08683 26.4808 7.18062 26.3045C7.27442 26.1281 7.33 25.9333 7.34356 25.7333C7.35716 25.5332 7.32845 25.3325 7.25941 25.1447C7.19034 24.9569 7.08252 24.7863 6.94324 24.6446C5.0922 22.755 3.86402 20.3259 3.42889 17.6939C2.99377 15.0619 3.37323 12.3573 4.51471 9.95466C4.64173 9.69164 4.68499 9.39481 4.63845 9.10557C4.59194 8.8163 4.45792 8.54907 4.25515 8.34107C4.10097 8.18313 3.91206 8.06492 3.70405 7.99623C3.49604 7.92758 3.27495 7.91039 3.05911 7.94614C2.84328 7.98192 2.63893 8.06956 2.46303 8.20186C2.28713 8.33413 2.14473 8.50725 2.04767 8.7068Z" fill="url(#paint2_linear_661_789)"/>
<path d="M70.5497 75.9839C68.1516 77.1227 65.4535 77.5018 62.827 77.0685C60.2008 76.6357 57.7757 75.412 55.8864 73.5665C55.6264 73.3098 55.2757 73.1616 54.9074 73.1535C54.5388 73.145 54.1817 73.2772 53.9101 73.5223C53.7742 73.6489 53.6656 73.8014 53.5904 73.9701C53.5156 74.1388 53.4757 74.3206 53.4731 74.5048C53.4706 74.6891 53.5059 74.8719 53.5764 75.0424C53.6469 75.2132 53.7515 75.3681 53.8839 75.4983C56.1878 77.7582 59.1499 79.257 62.3594 79.7872C65.5686 80.317 68.8662 79.8515 71.7945 78.4553C71.9937 78.358 72.1667 78.2155 72.2991 78.0394C72.4311 77.8632 72.5185 77.6588 72.5541 77.4427C72.5897 77.2266 72.5724 77.0052 72.5037 76.7973C72.435 76.589 72.3167 76.4001 72.1588 76.2459C71.9517 76.0433 71.6852 75.9092 71.3967 75.8622C71.1086 75.8152 70.8123 75.8576 70.5497 75.9839Z" fill="url(#paint3_linear_661_789)"/>
<path d="M74.0224 53.4108C73.7774 53.6821 73.6451 54.039 73.6536 54.4074C73.6617 54.7754 73.8099 55.1262 74.0666 55.3856C75.9133 57.275 77.1372 59.7005 77.569 62.327C78.0012 64.9538 77.6199 67.6518 76.4784 70.0489C76.3518 70.3116 76.309 70.6078 76.3557 70.8964C76.4027 71.185 76.5368 71.4516 76.7397 71.659C76.8939 71.8168 77.0828 71.9347 77.2907 72.0037C77.4986 72.0723 77.7197 72.0896 77.9357 72.054C78.1515 72.0184 78.3562 71.9314 78.532 71.7995C78.7081 71.6676 78.8509 71.4951 78.9482 71.296C80.3486 68.3691 80.8171 65.0717 80.2888 61.8619C79.7605 58.6518 78.2614 55.689 75.9999 53.3845C75.8698 53.2519 75.7146 53.1473 75.5438 53.0765C75.373 53.0057 75.1901 52.9705 75.0059 52.973C74.8213 52.9755 74.6395 53.0154 74.4705 53.0909C74.3014 53.166 74.1494 53.2746 74.0224 53.4108Z" fill="url(#paint4_linear_661_789)"/>
<path d="M76.4811 9.95111C77.6216 12.3486 78.0018 15.0469 77.5693 17.6735C77.1367 20.3 75.9127 22.7253 74.0667 24.6147C73.8099 24.8744 73.6617 25.2251 73.6536 25.5932C73.6451 25.9614 73.7774 26.3186 74.0224 26.5899C74.1491 26.7257 74.3015 26.8344 74.4702 26.9095C74.6389 26.9845 74.8206 27.0245 75.0049 27.027C75.1892 27.0294 75.3716 26.9944 75.5425 26.9239C75.7129 26.8534 75.8682 26.7489 75.9983 26.6165C78.2592 24.3123 79.7587 21.3497 80.2878 18.1399C80.8172 14.9301 80.3504 11.6324 78.9521 8.70467C78.8548 8.50546 78.7119 8.33275 78.5358 8.20081C78.3597 8.06883 78.1553 7.98147 77.9392 7.94595C77.7235 7.91043 77.5021 7.92772 77.2941 7.99646C77.0858 8.0652 76.897 8.18337 76.7428 8.3412C76.5401 8.54861 76.4057 8.81511 76.3587 9.10363C76.312 9.39217 76.3548 9.68838 76.4811 9.95111Z" fill="url(#paint5_linear_661_789)"/>
<path d="M55.8855 6.43342C57.7748 4.58713 60.2 3.36326 62.8267 2.93073C65.4533 2.4982 68.1515 2.87836 70.5491 4.01871C70.8119 4.14528 71.1081 4.18811 71.3964 4.14125C71.6851 4.09443 71.9515 3.96022 72.159 3.75737C72.3168 3.60321 72.4351 3.41424 72.5038 3.20617C72.5724 2.99809 72.5897 2.77689 72.5541 2.56091C72.5189 2.34493 72.4315 2.1404 72.2995 1.96427C72.1676 1.78814 71.9947 1.64549 71.7955 1.54814C68.8676 0.149787 65.5701 -0.317158 62.3604 0.212143C59.1506 0.741445 56.1879 2.24072 53.8837 4.5018C53.7514 4.63204 53.6468 4.78701 53.5763 4.95761C53.5059 5.12825 53.4706 5.31101 53.4731 5.49516C53.4757 5.67934 53.5156 5.86115 53.5904 6.02987C53.6655 6.19864 53.7741 6.35088 53.91 6.47763C54.1814 6.72256 54.5384 6.85472 54.9069 6.84648C55.275 6.83824 55.6256 6.69024 55.8855 6.43342Z" fill="url(#paint6_linear_661_789)"/>
<path d="M25.1147 73.5668C23.2254 75.4128 20.8 76.6368 18.1735 77.0693C15.5469 77.5018 12.8486 77.1216 10.4511 75.9811C10.1884 75.8549 9.89217 75.8121 9.60365 75.8588C9.31511 75.9058 9.0486 76.0402 8.84119 76.2428C8.6834 76.397 8.56523 76.5858 8.49649 76.7941C8.42775 77.0021 8.41042 77.2235 8.44594 77.4392C8.48149 77.6553 8.56886 77.8597 8.7008 78.0358C8.83274 78.2119 9.00549 78.3548 9.20466 78.452C12.1324 79.8503 15.4301 80.3171 18.6399 79.7877C21.8497 79.2587 24.8124 77.7592 27.1165 75.4984C27.2489 75.3683 27.3534 75.213 27.4239 75.0426C27.4944 74.8721 27.5294 74.6893 27.527 74.505C27.5245 74.3208 27.4845 74.139 27.4095 73.9703C27.3344 73.8016 27.2257 73.6492 27.0899 73.5226C26.8186 73.2776 26.4615 73.1453 26.0932 73.1534C25.7251 73.1619 25.3743 73.3097 25.1147 73.5668Z" fill="url(#paint7_linear_661_789)"/>
<path d="M4.51908 70.0489C3.37856 67.6513 2.99829 64.9532 3.43076 62.3265C3.86323 59.6999 5.0871 57.2746 6.93342 55.3854C7.19021 55.1254 7.33824 54.7749 7.34648 54.4068C7.35472 54.0383 7.22253 53.6813 6.97763 53.4098C6.85085 53.2739 6.6986 53.1654 6.52988 53.0902C6.36112 53.0155 6.17931 52.9755 5.99516 52.973C5.81102 52.9705 5.62822 53.0057 5.45762 53.0762C5.28702 53.1467 5.13202 53.2513 5.0018 53.3836C2.74072 55.6877 1.24144 58.6505 0.712142 61.8603C0.182843 65.07 0.649786 68.3675 2.04814 71.2954C2.14548 71.4946 2.28814 71.6675 2.46426 71.7994C2.64039 71.9314 2.84492 72.0187 3.0609 72.054C3.27688 72.0896 3.49809 72.0723 3.70616 72.0036C3.91424 71.935 4.10319 71.8167 4.25738 71.6589C4.46019 71.4514 4.59437 71.185 4.6413 70.8963C4.68819 70.608 4.64547 70.3117 4.51908 70.0489Z" fill="url(#paint8_linear_661_789)"/>
</g>
<defs>
<linearGradient id="paint0_linear_661_789" x1="40.3198" y1="75.3862" x2="40.3198" y2="28.4458" gradientUnits="userSpaceOnUse">
<stop offset="0.005" stop-color="#3F51DC"/>
<stop offset="1" stop-color="#2AC3D1"/>
</linearGradient>
<linearGradient id="paint1_linear_661_789" x1="17.9775" y1="74.3499" x2="17.9775" y2="28.1131" gradientUnits="userSpaceOnUse">
<stop offset="0.005" stop-color="#3F51DC"/>
<stop offset="1" stop-color="#2AC3D1"/>
</linearGradient>
<linearGradient id="paint2_linear_661_789" x1="3.92343" y1="75.4815" x2="3.92343" y2="28.4977" gradientUnits="userSpaceOnUse">
<stop offset="0.005" stop-color="#3F51DC"/>
<stop offset="1" stop-color="#2AC3D1"/>
</linearGradient>
<linearGradient id="paint3_linear_661_789" x1="63.0226" y1="75.7136" x2="63.0226" y2="29.4905" gradientUnits="userSpaceOnUse">
<stop offset="0.005" stop-color="#3F51DC"/>
<stop offset="1" stop-color="#2AC3D1"/>
</linearGradient>
<linearGradient id="paint4_linear_661_789" x1="77.0764" y1="75.7198" x2="77.0764" y2="28.7555" gradientUnits="userSpaceOnUse">
<stop offset="0.005" stop-color="#3F51DC"/>
<stop offset="1" stop-color="#2AC3D1"/>
</linearGradient>
<linearGradient id="paint5_linear_661_789" x1="77.0766" y1="75.4625" x2="77.0766" y2="28.4786" gradientUnits="userSpaceOnUse">
<stop offset="0.005" stop-color="#3F51DC"/>
<stop offset="1" stop-color="#2AC3D1"/>
</linearGradient>
<linearGradient id="paint6_linear_661_789" x1="63.0226" y1="74.3363" x2="63.0226" y2="28.1064" gradientUnits="userSpaceOnUse">
<stop offset="0.005" stop-color="#3F51DC"/>
<stop offset="1" stop-color="#2AC3D1"/>
</linearGradient>
<linearGradient id="paint7_linear_661_789" x1="17.9775" y1="75.7138" x2="17.9775" y2="29.4913" gradientUnits="userSpaceOnUse">
<stop offset="0.005" stop-color="#3F51DC"/>
<stop offset="1" stop-color="#2AC3D1"/>
</linearGradient>
<linearGradient id="paint8_linear_661_789" x1="3.92342" y1="75.7199" x2="3.92342" y2="28.755" gradientUnits="userSpaceOnUse">
<stop offset="0.005" stop-color="#3F51DC"/>
<stop offset="1" stop-color="#2AC3D1"/>
</linearGradient>
</defs>
</svg>
