<svg width="27" height="27" viewBox="0 0 27 27" fill="none" xmlns="http://www.w3.org/2000/svg">
<path d="M0.766569 11.1L6.36657 5.5C6.67768 5.18889 7.04435 4.96667 7.46657 4.83334C7.88879 4.7 8.32212 4.67778 8.76657 4.76667L10.4999 5.13334C9.2999 6.55556 8.35546 7.84445 7.66657 9C6.97768 10.1556 6.31101 11.5556 5.66657 13.2L0.766569 11.1ZM7.5999 14.1333C8.11101 12.5333 8.80568 11.0222 9.6839 9.6C10.5621 8.17778 11.623 6.84445 12.8666 5.6C14.8221 3.64445 17.0555 2.18356 19.5666 1.21734C22.0777 0.251113 24.4221 -0.0435535 26.5999 0.333335C26.9777 2.51111 26.6888 4.85556 25.7332 7.36667C24.7777 9.87778 23.3221 12.1111 21.3666 14.0667C20.1443 15.2889 18.811 16.3502 17.3666 17.2507C15.9221 18.1511 14.3999 18.8564 12.7999 19.3667L7.5999 14.1333ZM16.7999 10.1333C17.311 10.6444 17.939 10.9 18.6839 10.9C19.4288 10.9 20.0563 10.6444 20.5666 10.1333C21.0768 9.62222 21.3323 8.99467 21.3332 8.25067C21.3341 7.50667 21.0786 6.87867 20.5666 6.36667C20.0546 5.85467 19.427 5.59911 18.6839 5.6C17.9408 5.60089 17.3128 5.85645 16.7999 6.36667C16.287 6.87689 16.0315 7.50489 16.0332 8.25067C16.035 8.99645 16.2906 9.624 16.7999 10.1333ZM15.8666 26.1667L13.7332 21.2667C15.3777 20.6222 16.7835 19.9556 17.9506 19.2667C19.1177 18.5778 20.4119 17.6333 21.8332 16.4333L22.1666 18.1667C22.2555 18.6111 22.2332 19.0502 22.0999 19.484C21.9666 19.9178 21.7443 20.2898 21.4332 20.6L15.8666 26.1667ZM2.8999 18.4C3.67768 17.6222 4.62212 17.2276 5.73324 17.216C6.84435 17.2044 7.78879 17.588 8.56657 18.3667C9.34435 19.1453 9.73324 20.0898 9.73324 21.2C9.73324 22.3102 9.34435 23.2547 8.56657 24.0333C8.01101 24.5889 7.08346 25.0667 5.7839 25.4667C4.48435 25.8667 2.68968 26.2222 0.399902 26.5333C0.711013 24.2444 1.06657 22.4556 1.46657 21.1667C1.86657 19.8778 2.34435 18.9556 2.8999 18.4Z" fill="#034F73"/>
</svg>
